<svg
  width="33"
  height="32"
  background-color="transparent"
  viewBox="0 0 33 32"
  fill="none"
  xmlns="http://www.w3.org/2000/svg"
>
<g id="github">
<g id="content">
<path
        id="Vector"
        d="M13.8333 27.4233C9.26189 28.9664 5.45237 27.4233 3.16666 22.6667"
        stroke="#0F121C"
        stroke-width="1.5"
        stroke-linecap="round"
        stroke-linejoin="round"
      />
<path
        id="Vector_2"
        d="M13.8333 29.3334V25.0105C13.8333 24.2128 14.0786 23.5195 14.4739 22.8932C14.745 22.4635 14.5593 21.8539 14.0694 21.7192C10.0119 20.6038 7.16666 18.8103 7.16666 12.8614C7.16666 11.3148 7.6734 9.86077 8.56414 8.59522C8.78581 8.28026 8.89665 8.12279 8.92329 7.98015C8.94994 7.83752 8.90361 7.65139 8.81095 7.27911C8.43384 5.76391 8.45828 4.15494 9.02429 2.70432C9.02429 2.70432 10.1939 2.32325 12.856 3.98628C13.4638 4.36598 13.7677 4.55583 14.0353 4.5983C14.3029 4.64077 14.6608 4.55181 15.3764 4.3739C16.3551 4.13062 17.3634 4.00002 18.5 4.00002C19.6365 4.00002 20.6449 4.13062 21.6235 4.3739C22.3392 4.55181 22.697 4.64077 22.9647 4.5983C23.2323 4.55583 23.5362 4.36598 24.144 3.98628C26.8061 2.32325 27.9757 2.70432 27.9757 2.70432C28.5417 4.15494 28.5661 5.76391 28.189 7.27911C28.0964 7.65139 28.05 7.83752 28.0767 7.98015C28.1033 8.12279 28.2142 8.28027 28.4358 8.59522C29.3266 9.86077 29.8333 11.3148 29.8333 12.8614C29.8333 18.8103 26.9881 20.6038 22.9305 21.7192C22.4407 21.8539 22.255 22.4635 22.5261 22.8932C22.9214 23.5195 23.1667 24.2128 23.1667 25.0105V29.3334"
        stroke="#0F121C"
        stroke-width="1.5"
        stroke-linecap="round"
        stroke-linejoin="round"
      />
</g>
</g>
</svg>
