<svg width="33" height="32" viewBox="0 0 33 32" fill="none" xmlns="http://www.w3.org/2000/svg">
<g id="linkedin-01">
<g id="content">
<path id="Vector 6356" d="M9.83334 13.3334V22.6667" stroke="#0F121C" stroke-width="1.5" stroke-linecap="round" stroke-linejoin="round"/>
<path id="Vector" d="M15.1667 17.3334V22.6667M15.1667 17.3334C15.1667 15.1242 16.9575 13.3334 19.1667 13.3334C21.3758 13.3334 23.1667 15.1242 23.1667 17.3334V22.6667M15.1667 17.3334V13.3334" stroke="#0F121C" stroke-width="1.5" stroke-linecap="round" stroke-linejoin="round"/>
<path id="Vector_2" d="M9.84401 9.33337L9.83203 9.33337" stroke="#0F121C" stroke-width="2" stroke-linecap="round" stroke-linejoin="round"/>
<path id="Vector_3" d="M3.83334 16C3.83334 10.0289 3.83334 7.04335 5.68833 5.18836C7.54332 3.33337 10.5289 3.33337 16.5 3.33337C22.4711 3.33337 25.4567 3.33337 27.3117 5.18836C29.1667 7.04335 29.1667 10.0289 29.1667 16C29.1667 21.9712 29.1667 24.9567 27.3117 26.8117C25.4567 28.6667 22.4711 28.6667 16.5 28.6667C10.5289 28.6667 7.54332 28.6667 5.68833 26.8117C3.83334 24.9567 3.83334 21.9712 3.83334 16Z" stroke="#0F121C" stroke-width="1.5" stroke-linejoin="round"/>
</g>
</g>
</svg>
