<svg width="33" height="32" viewBox="0 0 33 32" fill="none" xmlns="http://www.w3.org/2000/svg">
<g id="mail-01">
<g id="content">
<path id="Vector 7163" d="M3.16666 8L12.384 13.2226C15.7821 15.148 17.2179 15.148 20.616 13.2226L29.8333 8" stroke="#0F121C" stroke-width="1.5" stroke-linejoin="round"/>
<path id="Vector" d="M3.18768 17.9675C3.27484 22.0548 3.31843 24.0985 4.8266 25.6124C6.33477 27.1263 8.43377 27.1791 12.6318 27.2845C15.2191 27.3496 17.7809 27.3496 20.3682 27.2845C24.5662 27.1791 26.6652 27.1263 28.1734 25.6124C29.6816 24.0985 29.7251 22.0548 29.8123 17.9675C29.8403 16.6532 29.8403 15.3467 29.8123 14.0325C29.7251 9.94511 29.6816 7.90142 28.1734 6.38751C26.6652 4.8736 24.5662 4.82086 20.3682 4.71538C17.7809 4.65038 15.2191 4.65037 12.6318 4.71538C8.43376 4.82084 6.33477 4.87358 4.82659 6.38749C3.31842 7.9014 3.27484 9.94509 3.18768 14.0325C3.15965 15.3467 3.15965 16.6532 3.18768 17.9675Z" stroke="#0F121C" stroke-width="1.5" stroke-linejoin="round"/>
</g>
</g>
</svg>
